<svg width="24" height="25" viewBox="0 0 24 25" fill="none" xmlns="http://www.w3.org/2000/svg">
<path fill-rule="evenodd" clip-rule="evenodd" d="M0 7.90723C0 7.35494 0.424151 6.90723 0.947368 6.90723H17.0526C17.5758 6.90723 18 7.35494 18 7.90723C18 8.45951 17.5758 8.90723 17.0526 8.90723H0.947368C0.424151 8.90723 0 8.45951 0 7.90723Z" fill="#606060"/>
<path fill-rule="evenodd" clip-rule="evenodd" d="M0 12.9072C0 12.3549 0.413276 11.9072 0.923077 11.9072H23.0769C23.5867 11.9072 24 12.3549 24 12.9072C24 13.4595 23.5867 13.9072 23.0769 13.9072H0.923077C0.413276 13.9072 0 13.4595 0 12.9072Z" fill="#606060"/>
<path fill-rule="evenodd" clip-rule="evenodd" d="M0 17.9072C0 17.3549 0.415736 16.9072 0.928571 16.9072H12.0714C12.5843 16.9072 13 17.3549 13 17.9072C13 18.4595 12.5843 18.9072 12.0714 18.9072H0.928571C0.415736 18.9072 0 18.4595 0 17.9072Z" fill="#606060"/>
</svg>
