<svg width="20" height="20" viewBox="0 0 20 20" fill="none" xmlns="http://www.w3.org/2000/svg">
<path fill-rule="evenodd" clip-rule="evenodd" d="M0 4C0 1.79086 1.79086 0 4 0H16C18.2091 0 20 1.79086 20 4V16C20 18.2091 18.2091 20 16 20H4C1.79086 20 0 18.2091 0 16V4ZM6.46971 6.46971C6.7626 6.17682 7.23748 6.17682 7.53037 6.46971L10.3334 9.27271L13.1364 6.46971C13.4293 6.17682 13.9041 6.17682 14.197 6.46971C14.4899 6.7626 14.4899 7.23748 14.197 7.53037L11.394 10.3334L14.197 13.1364C14.4899 13.4293 14.4899 13.9041 14.197 14.197C13.9041 14.4899 13.4293 14.4899 13.1364 14.197L10.3334 11.394L7.53037 14.197C7.23748 14.4899 6.7626 14.4899 6.46971 14.197C6.17682 13.9041 6.17682 13.4293 6.46971 13.1364L9.27271 10.3334L6.46971 7.53037C6.17682 7.23748 6.17682 6.7626 6.46971 6.46971Z" fill="#E21A1A"/>
</svg>
