<svg width="28" height="28" viewBox="0 0 28 28" fill="none" xmlns="http://www.w3.org/2000/svg">
<path fill-rule="evenodd" clip-rule="evenodd" d="M4.83192 13.9999C6.3757 17.5332 9.901 20 14.0001 20C18.0992 20 21.6245 17.5333 23.1683 14.0001C21.6245 10.4668 18.0992 8 14.0001 8C9.901 8 6.37573 10.4667 4.83192 13.9999ZM24.2502 14.0001C22.6501 9.90268 18.6641 7 14.0001 7C9.33615 7 5.35016 9.90261 3.75 13.9999C5.35012 18.0973 9.33616 21 14.0001 21C18.6641 21 22.6501 18.0974 24.2502 14.0001Z" fill="#606060"/>
<path fill-rule="evenodd" clip-rule="evenodd" d="M14.0001 17C15.657 17 17.0001 15.6569 17.0001 14C17.0001 12.3431 15.657 11 14.0001 11C12.3433 11 11.0001 12.3431 11.0001 14C11.0001 15.6569 12.3433 17 14.0001 17ZM14.0001 18C16.2093 18 18.0001 16.2091 18.0001 14C18.0001 11.7909 16.2093 10 14.0001 10C11.791 10 10.0001 11.7909 10.0001 14C10.0001 16.2091 11.791 18 14.0001 18Z" fill="#606060"/>
</svg>
