<svg width="28" height="28" viewBox="0 0 28 28" fill="none" xmlns="http://www.w3.org/2000/svg">
<path fill-rule="evenodd" clip-rule="evenodd" d="M22.8391 11.6007C22.6187 11.4346 22.3054 11.4785 22.1392 11.6988L22.1354 11.7037C22.1316 11.7086 22.1251 11.7169 22.1159 11.7283C22.0976 11.7511 22.0687 11.7863 22.0292 11.8323C21.9502 11.9243 21.8289 12.059 21.6654 12.2226C21.3382 12.55 20.8435 12.9914 20.1819 13.4372C18.8604 14.3278 16.8753 15.2348 14.2203 15.2896C11.5751 15.3442 9.47922 14.44 8.03897 13.5167C7.31891 13.0551 6.76575 12.5904 6.39431 12.243C6.20875 12.0695 6.06905 11.9257 5.97705 11.8269C5.93107 11.7775 5.89705 11.7394 5.87522 11.7144C5.86431 11.702 5.85646 11.6928 5.85168 11.6872L5.84683 11.6815L5.84618 11.6807C5.67003 11.4685 5.35521 11.4389 5.14265 11.6148C4.92992 11.7909 4.90018 12.1061 5.07624 12.3188L5.46144 12C5.07624 12.3188 5.07693 12.3196 5.07693 12.3196L5.07791 12.3208L5.08077 12.3242L5.09007 12.3352C5.09786 12.3444 5.10882 12.3571 5.12293 12.3733C5.15113 12.4055 5.19193 12.4511 5.2451 12.5082C5.35142 12.6224 5.50739 12.7827 5.71126 12.9734C6.06327 13.3026 6.55959 13.7237 7.19116 14.1547L5.07009 17.2507C4.935 17.4479 5.00071 17.7077 5.21686 17.8309C5.43302 17.9542 5.71776 17.8942 5.85286 17.697L7.95068 14.6349C8.88736 15.1821 10.0435 15.697 11.3981 16.0034L10.5494 19.4878C10.4941 19.7148 10.6509 19.9397 10.8998 19.9901C11.1486 20.0406 11.3951 19.8975 11.4504 19.6704L12.3029 16.1709C12.9144 16.2594 13.561 16.3034 14.2409 16.2894C14.9139 16.2755 15.548 16.211 16.1431 16.1079L17.0108 19.6704C17.0661 19.8975 17.3127 20.0406 17.5615 19.9901C17.8103 19.9397 17.9672 19.7148 17.9119 19.4878L17.0421 15.9169C18.2363 15.6151 19.2493 15.1631 20.0802 14.6803L22.1469 17.697C22.282 17.8942 22.5667 17.9542 22.7829 17.8309C22.999 17.7077 23.0648 17.4479 22.9297 17.2507L20.8392 14.1994C21.5134 13.735 22.0243 13.278 22.3727 12.9295C22.5553 12.7468 22.6936 12.5935 22.7877 12.484C22.8347 12.4293 22.8707 12.3855 22.8957 12.3544C22.9082 12.3388 22.9179 12.3264 22.9249 12.3175L22.9333 12.3066L22.9359 12.3031L22.9369 12.3018L22.9376 12.3009C23.1038 12.0804 23.0597 11.7669 22.8391 11.6007Z" fill="#606060"/>
</svg>
