<svg width="20" height="20" viewBox="0 0 20 20" fill="none" xmlns="http://www.w3.org/2000/svg">
<path fill-rule="evenodd" clip-rule="evenodd" d="M0 4C0 1.79086 1.79086 0 4 0H16C18.2091 0 20 1.79086 20 4V16C20 18.2091 18.2091 20 16 20H4C1.79086 20 0 18.2091 0 16V4ZM9 9C9 8.44771 9.44771 8 10 8C10.5523 8 11 8.44771 11 9V15C11 15.5523 10.5523 16 10 16C9.44771 16 9 15.5523 9 15V9ZM10 5C9.44771 5 9 5.44772 9 6C9 6.55228 9.44771 7 10 7C10.5523 7 11 6.55228 11 6C11 5.44772 10.5523 5 10 5Z" fill="#0066A1"/>
</svg>
