<svg width="93" height="40" viewBox="0 0 93 40" fill="none" xmlns="http://www.w3.org/2000/svg">
<path d="M25.4685 22.586H26.4176C26.6505 22.586 26.9097 22.5687 27.2041 22.5252C27.4941 22.4818 27.7358 22.3992 27.9291 22.2646C28.1313 22.1212 28.2587 21.9692 28.3114 21.8085C28.3685 21.6434 28.3949 21.4958 28.3949 21.3481C28.3949 21.1048 28.3466 20.892 28.2411 20.7095C28.1401 20.5271 27.9687 20.3794 27.727 20.2665C27.6435 20.2361 27.5073 20.197 27.3008 20.1449C27.0987 20.0927 26.7735 20.0667 26.3209 20.0667H25.4685V22.586ZM25.4685 18.1554H26.255C26.4659 18.1554 26.7076 18.1424 26.98 18.112C27.2525 18.0816 27.4897 17.9947 27.6875 17.8514C27.85 17.7384 27.9599 17.6168 28.0258 17.4865C28.0917 17.3518 28.1269 17.1998 28.1269 17.0261C28.1269 16.8827 28.1005 16.7524 28.0566 16.6221C28.0082 16.4961 27.9335 16.3832 27.8237 16.2789C27.7138 16.179 27.5512 16.0965 27.3315 16.0357C27.1118 15.9749 26.8174 15.9445 26.4483 15.9445H25.4685V18.1554ZM22.6606 13.942H27.5073C27.6391 13.942 27.8105 13.9507 28.0302 13.9637C28.2455 13.9811 28.4784 14.0159 28.7245 14.0723C28.9705 14.1288 29.2254 14.2113 29.4846 14.3243C29.7483 14.4372 29.9856 14.5936 30.1965 14.7977C30.6886 15.2669 30.9347 15.8923 30.9347 16.6872C30.9347 17.0608 30.8863 17.3692 30.7897 17.6081C30.693 17.847 30.5963 18.0381 30.4953 18.1771C30.3239 18.4117 30.113 18.6115 29.8537 18.7722C29.5945 18.933 29.3352 19.0546 29.076 19.1371V19.1675C29.2869 19.1979 29.5198 19.2587 29.7703 19.35C30.0207 19.4412 30.2536 19.5758 30.4645 19.7626C30.6754 19.945 30.8512 20.1839 30.9918 20.4793C31.1324 20.7747 31.2027 21.1396 31.2027 21.5739C31.2027 21.8997 31.1632 22.1864 31.0885 22.434C31.0094 22.6816 30.9171 22.9031 30.8073 23.0899C30.6974 23.2767 30.5744 23.4374 30.4469 23.5677C30.3151 23.7024 30.1921 23.8066 30.0691 23.8891C29.845 24.0412 29.6033 24.1628 29.344 24.2584C29.0804 24.3583 28.8167 24.4278 28.5531 24.4799C28.2851 24.532 28.0214 24.5624 27.7666 24.5798C27.5117 24.5972 27.2832 24.6015 27.0943 24.6015H22.6562V13.942H22.6606Z" fill="#E42613"/>
<path d="M37.0195 18.403C36.5142 18.403 36.1056 18.5767 35.798 18.9199C35.5651 19.1848 35.4201 19.4715 35.3498 19.7799C35.2839 20.0883 35.2531 20.375 35.2531 20.64C35.2531 20.9049 35.2839 21.1873 35.3498 21.4957C35.4157 21.8041 35.5651 22.0908 35.798 22.3557C36.11 22.6989 36.5186 22.8726 37.0195 22.8726C37.5249 22.8726 37.9335 22.6989 38.2411 22.3557C38.474 22.0908 38.619 21.8041 38.6893 21.4957C38.7552 21.1873 38.786 20.9006 38.786 20.64C38.786 20.3794 38.7552 20.0927 38.6893 19.7799C38.6234 19.4715 38.474 19.1848 38.2411 18.9199C37.9335 18.5724 37.5249 18.403 37.0195 18.403ZM37.0195 16.483C37.6523 16.483 38.2367 16.5699 38.7684 16.7437C39.3045 16.9174 39.7614 17.1563 40.1437 17.456C40.3019 17.5776 40.4689 17.734 40.6403 17.9208C40.8116 18.1076 40.9654 18.3335 41.1104 18.5897C41.251 18.8504 41.3697 19.1501 41.4576 19.4889C41.5498 19.8277 41.5938 20.2099 41.5938 20.6356C41.5938 21.0657 41.5498 21.4479 41.4576 21.7867C41.3653 22.1255 41.251 22.4252 41.1104 22.6859C40.9698 22.9421 40.816 23.168 40.6403 23.3548C40.4689 23.5416 40.3019 23.698 40.1437 23.8196C39.8801 24.0324 39.6077 24.1975 39.3264 24.3235C39.0452 24.4451 38.7684 24.5406 38.4959 24.6101C38.2235 24.684 37.9599 24.7274 37.705 24.7491C37.4502 24.7709 37.2173 24.7795 37.0195 24.7795C36.8174 24.7795 36.5889 24.7665 36.3341 24.7491C36.0792 24.7274 35.8112 24.684 35.5431 24.6101C35.2707 24.5406 34.9939 24.4451 34.7127 24.3235C34.4314 24.2018 34.159 24.0324 33.8954 23.8196C33.7328 23.698 33.5702 23.5416 33.3988 23.3548C33.2275 23.168 33.0693 22.9421 32.9287 22.6859C32.788 22.4252 32.6694 22.1255 32.5815 21.7867C32.4936 21.4479 32.4453 21.0657 32.4453 20.6356C32.4453 20.2099 32.4893 19.8277 32.5815 19.4889C32.6738 19.1501 32.788 18.8504 32.9287 18.5897C33.0693 18.3335 33.2231 18.1076 33.3988 17.9208C33.5702 17.734 33.7328 17.5776 33.8954 17.456C34.2776 17.152 34.7346 16.9131 35.2707 16.7437C35.798 16.5699 36.3868 16.483 37.0195 16.483Z" fill="#E42613"/>
<path d="M45.7785 19.5584H46.5782L48.828 16.6655H51.8643L48.7226 20.3838L52.0577 24.5972H48.8588L46.5914 21.4784H45.7785V24.5972H43.0586V16.6655H45.7785V19.5584Z" fill="#E42613"/>
<path d="M54.1878 19.7105H55.5324C55.7038 19.7105 55.8751 19.7018 56.0465 19.6801C56.2223 19.6583 56.3673 19.5975 56.4903 19.4976C56.5782 19.4281 56.6397 19.3413 56.6749 19.2457C56.71 19.1501 56.7276 19.0502 56.7276 18.9503C56.7276 18.7766 56.6836 18.6549 56.6002 18.5854C56.5167 18.5116 56.4288 18.4508 56.3365 18.403C56.1651 18.3205 55.9938 18.2727 55.8136 18.251C55.6335 18.2293 55.4577 18.2206 55.2863 18.2206C55.0271 18.2206 54.7854 18.2379 54.5657 18.2684C54.346 18.2988 54.1219 18.3465 53.8934 18.4074C53.5243 18.5116 53.1684 18.6506 52.83 18.833L52.6499 16.9913C52.83 16.9218 53.0234 16.8566 53.2343 16.8002C53.4408 16.7437 53.6517 16.6959 53.8626 16.6568C54.1527 16.6047 54.4866 16.5656 54.8601 16.5352C55.2336 16.5048 55.5939 16.4874 55.9454 16.4874C56.4112 16.4874 56.8638 16.5222 57.312 16.583C57.7602 16.6525 58.1601 16.7915 58.5116 17.0043C58.8543 17.2085 59.1092 17.4648 59.2805 17.7645C59.4519 18.0685 59.5354 18.3856 59.5354 18.7114C59.5354 18.9243 59.4958 19.1328 59.4211 19.3369C59.3421 19.5411 59.2454 19.7105 59.1267 19.8538C59.0169 19.9841 58.8719 20.1101 58.6873 20.2274C58.5072 20.3447 58.2963 20.4272 58.0546 20.4793V20.5097C58.3446 20.5271 58.5951 20.5966 58.8016 20.7095C59.0081 20.8225 59.1795 20.9484 59.3245 21.0874C59.5046 21.2699 59.6277 21.4697 59.6936 21.6869C59.7595 21.9041 59.7903 22.1386 59.7903 22.3819C59.7903 22.7076 59.7331 22.9856 59.6189 23.2202C59.5002 23.4548 59.3596 23.6502 59.1927 23.8153C59.0257 23.976 58.8543 24.1063 58.6698 24.2019C58.4896 24.2974 58.327 24.3713 58.1864 24.4234C57.8041 24.5668 57.3955 24.6623 56.9649 24.7101C56.5298 24.7622 56.1256 24.7883 55.7389 24.7883C55.3874 24.7883 55.0271 24.7709 54.6536 24.7362C54.2801 24.6971 53.9505 24.6493 53.6561 24.5885C53.476 24.5494 53.2738 24.5016 53.0585 24.4451C52.8432 24.3887 52.6411 24.3322 52.4609 24.2714L52.5532 22.3515C52.7466 22.4644 52.9443 22.56 53.1508 22.6381C53.3573 22.7207 53.5902 22.7902 53.8407 22.851C54.0736 22.9031 54.3328 22.9465 54.6184 22.99C54.904 23.0334 55.1589 23.0508 55.3786 23.0508C55.7916 23.0508 56.0948 23.016 56.2882 22.9509C56.4771 22.8814 56.5826 22.838 56.6046 22.8206C56.6968 22.7685 56.7803 22.6903 56.8638 22.586C56.9429 22.4774 56.9824 22.3471 56.9824 22.182C56.9824 22.0691 56.9561 21.9562 56.899 21.8389C56.8418 21.7216 56.732 21.6217 56.5738 21.5435C56.442 21.4827 56.2662 21.4349 56.0421 21.4045C55.8224 21.3741 55.6203 21.3567 55.4401 21.3567H54.1878V19.7105Z" fill="#E42613"/>
<path d="M63.3523 22.1039C63.3523 22.1864 63.3698 22.282 63.405 22.3949C63.4402 22.5078 63.5192 22.6208 63.6467 22.7337C63.6994 22.7858 63.7873 22.8423 63.9147 22.8988C64.0421 22.9552 64.2135 22.9813 64.4332 22.9813C64.6309 22.9813 64.8419 22.9379 65.0703 22.851C65.2944 22.7641 65.501 22.5904 65.6899 22.3341C65.8481 22.1169 65.9492 21.8954 65.9975 21.6695C66.0502 21.4436 66.0766 21.2482 66.0898 21.0831C65.8833 21.0527 65.6987 21.0353 65.5405 21.0266C65.3823 21.0223 65.2198 21.0223 65.0528 21.0223C64.8375 21.0223 64.6134 21.0353 64.3893 21.0614C64.1608 21.0874 63.963 21.1613 63.7829 21.2873C63.6027 21.4132 63.4885 21.5479 63.4358 21.7043C63.3786 21.8563 63.3523 21.9909 63.3523 22.1039ZM66.2524 24.5972L66.2216 23.3505H66.1908C66.0678 23.5547 65.9448 23.7241 65.8129 23.8587C65.6811 23.9934 65.5757 24.1063 65.4834 24.1845C65.2241 24.4061 64.9473 24.5624 64.6617 24.6493C64.3761 24.7362 64.0597 24.7796 63.7082 24.7796C63.3083 24.7796 62.9304 24.7275 62.5745 24.6276C62.2186 24.5277 61.9066 24.367 61.6342 24.1541C61.4233 23.9804 61.2255 23.7502 61.0454 23.4591C60.8652 23.1724 60.7773 22.7858 60.7773 22.3124C60.7773 22.1777 60.7949 22.017 60.8257 21.8215C60.8564 21.6304 60.9136 21.4306 61.0058 21.2221C61.0981 21.0136 61.2299 20.8051 61.4013 20.6053C61.5771 20.4011 61.8099 20.2274 62.1 20.071C62.3109 19.9711 62.535 19.8842 62.7679 19.8191C63.0051 19.7539 63.2424 19.7018 63.4797 19.6671C63.7214 19.6323 63.9543 19.6062 64.1871 19.5976C64.4156 19.5889 64.6265 19.5802 64.8155 19.5802C64.8858 19.5802 65.0484 19.5845 65.3032 19.5976C65.5581 19.6062 65.8173 19.628 66.0766 19.6584C66.0766 19.4499 66.0458 19.2674 65.9843 19.1067C65.9228 18.946 65.8393 18.807 65.7295 18.6941C65.5317 18.4856 65.3032 18.3639 65.0484 18.3292C64.7935 18.2901 64.5562 18.2727 64.3365 18.2727C63.9894 18.2727 63.5983 18.3075 63.1677 18.3813C62.7371 18.4508 62.346 18.5551 61.9989 18.6854L61.744 16.9435C62.1571 16.8045 62.6404 16.6916 63.1941 16.6047C63.7477 16.5179 64.3102 16.4788 64.8858 16.4788C65.3208 16.4788 65.7778 16.5309 66.2611 16.6308C66.7445 16.735 67.1751 16.9349 67.5618 17.2389C67.7947 17.4213 67.9836 17.6212 68.1286 17.8427C68.2736 18.0599 68.3835 18.2814 68.4626 18.4986C68.5373 18.7158 68.59 18.933 68.612 19.1545C68.6383 19.3717 68.6515 19.5802 68.6515 19.7713V22.725C68.6515 22.977 68.6559 23.2723 68.6691 23.6112C68.6779 23.9456 68.7042 24.2757 68.7438 24.6015H66.2524V24.5972Z" fill="#E42613"/>
<path d="M78.7378 16.6655V24.5972H76.0179V18.6767H73.7989L73.7506 20.7008C73.7286 21.4827 73.6934 22.1126 73.6363 22.5904C73.5792 23.0682 73.4605 23.4504 73.2804 23.7328C73.109 24.0064 72.8542 24.2497 72.5202 24.4625C72.1819 24.6754 71.7205 24.7796 71.1361 24.7796C70.8329 24.7796 70.5605 24.7622 70.3188 24.7275C70.0771 24.6927 69.8706 24.6493 69.6992 24.5972L69.73 22.6468C69.9013 22.699 70.0771 22.725 70.2573 22.725C70.3583 22.725 70.4682 22.7033 70.5824 22.6642C70.7011 22.6208 70.8109 22.5296 70.9208 22.3906C71.0526 22.2168 71.1449 21.9432 71.1932 21.5652C71.2459 21.1917 71.2811 20.6053 71.2987 19.8147L71.3778 16.6655H78.7378Z" fill="#E42613"/>
<path d="M89.7134 16.6655H92.4333V24.5972H89.7134V16.6655ZM83.2981 22.7728H84.6295C84.7525 22.7728 84.8975 22.7598 85.0733 22.7337C85.249 22.7076 85.3984 22.6512 85.5171 22.56C85.6577 22.4557 85.7456 22.3471 85.7763 22.2255C85.8071 22.1039 85.8203 21.9866 85.8203 21.878C85.8203 21.7737 85.7983 21.6565 85.7587 21.5218C85.7148 21.3828 85.6181 21.2655 85.4555 21.1656C85.3721 21.1135 85.2622 21.0744 85.126 21.044C84.9854 21.0136 84.8579 20.9962 84.7481 20.9962H83.2981V22.7728ZM83.2981 16.6655V19.1632H85.4248C85.8159 19.1632 86.2245 19.2023 86.6507 19.2761C87.0726 19.3543 87.4592 19.5498 87.8152 19.8625C88.1579 20.1753 88.3776 20.5228 88.4787 20.8963C88.5797 21.2699 88.6281 21.6174 88.6281 21.9345C88.6281 22.0778 88.6149 22.2298 88.5973 22.3992C88.5753 22.5643 88.5358 22.7424 88.4787 22.9248C88.4172 23.1073 88.3249 23.2897 88.2062 23.4678C88.0832 23.6459 87.9294 23.811 87.7361 23.963C87.5427 24.115 87.3318 24.2323 87.1077 24.3105C86.8792 24.393 86.6551 24.4538 86.4354 24.5016C86.2157 24.5494 86.0048 24.5754 85.8115 24.5885C85.6137 24.5972 85.4511 24.6059 85.3193 24.6059H80.5781V16.6655H83.2981Z" fill="#E42613"/>
<path d="M25.468 34.0794H26.193C26.3644 34.0794 26.5753 34.0577 26.8345 34.0099C27.0894 33.9622 27.3179 33.8536 27.52 33.6842C27.6914 33.5235 27.8012 33.341 27.8496 33.1412C27.9023 32.9457 27.9243 32.7676 27.9243 32.6156C27.9243 32.4115 27.8935 32.2116 27.8364 32.0205C27.7749 31.8251 27.6386 31.6513 27.4277 31.4862C27.2256 31.3342 27.0015 31.243 26.7642 31.2126C26.5225 31.1822 26.3292 31.1648 26.1886 31.1648H25.468V34.0794ZM26.0128 29.1624C26.2853 29.1624 26.5929 29.1754 26.9356 29.1928C27.2783 29.2145 27.6211 29.2579 27.9726 29.3318C28.3197 29.4013 28.6581 29.5099 28.9832 29.6489C29.3084 29.7922 29.5984 29.9833 29.8533 30.2266C30.0642 30.4307 30.2663 30.7304 30.4596 31.1257C30.6486 31.521 30.7453 32.0336 30.7453 32.6634C30.7453 33.0456 30.6837 33.4322 30.5695 33.8101C30.4508 34.1924 30.2487 34.5442 29.9587 34.87C29.6951 35.1523 29.4095 35.3782 29.0975 35.5389C28.7855 35.6997 28.4691 35.8213 28.1527 35.9038C27.8364 35.9863 27.5332 36.0341 27.252 36.0558C26.9707 36.0776 26.7379 36.0863 26.5577 36.0863H25.468V39.8175H22.6602V29.1624H26.0128Z" fill="#E42613"/>
<path d="M36.0977 33.6234C35.5924 33.6234 35.1837 33.7972 34.8761 34.1403C34.6432 34.4053 34.4982 34.692 34.4279 35.0004C34.362 35.3088 34.3312 35.5955 34.3312 35.8561C34.3312 36.1211 34.362 36.4077 34.4279 36.7161C34.4938 37.0246 34.6432 37.3112 34.8761 37.5762C35.1881 37.9194 35.5967 38.0931 36.0977 38.0931C36.603 38.0931 37.0116 37.9194 37.3192 37.5762C37.5521 37.3112 37.6971 37.0246 37.7674 36.7161C37.8333 36.4077 37.8641 36.1211 37.8641 35.8561C37.8641 35.5955 37.8333 35.3088 37.7674 35.0004C37.7015 34.692 37.5521 34.4053 37.3192 34.1403C37.0116 33.7928 36.603 33.6234 36.0977 33.6234ZM36.0977 31.7035C36.7304 31.7035 37.3192 31.7904 37.8465 31.9641C38.3826 32.1379 38.8396 32.3768 39.2219 32.6765C39.38 32.7981 39.547 32.9545 39.7184 33.1413C39.8898 33.328 40.0435 33.5539 40.1885 33.8102C40.3292 34.0708 40.4478 34.3705 40.5357 34.7093C40.6236 35.0482 40.6719 35.4304 40.6719 35.8604C40.6719 36.2861 40.628 36.6684 40.5357 37.0072C40.4434 37.346 40.3292 37.6457 40.1885 37.9063C40.0479 38.1626 39.8941 38.3885 39.7184 38.5753C39.547 38.762 39.38 38.9184 39.2219 39.04C38.9582 39.2529 38.6858 39.4179 38.4046 39.5439C38.1233 39.6655 37.8465 39.7611 37.5741 39.8306C37.3016 39.9044 37.038 39.9479 36.7831 39.9696C36.5283 39.9913 36.2954 40 36.0977 40C35.8955 40 35.6671 39.987 35.4122 39.9696C35.1573 39.9479 34.8893 39.9044 34.6213 39.8306C34.3488 39.7611 34.072 39.6655 33.7908 39.5439C33.5096 39.4223 33.2371 39.2529 32.9735 39.04C32.8109 38.9184 32.6483 38.762 32.477 38.5753C32.3056 38.3885 32.1474 38.1626 32.0068 37.9063C31.8662 37.6457 31.7475 37.346 31.6597 37.0072C31.5718 36.6684 31.5234 36.2861 31.5234 35.8604C31.5234 35.4304 31.5674 35.0482 31.6597 34.7093C31.7519 34.3705 31.8662 34.0708 32.0068 33.8102C32.1474 33.5539 32.3012 33.328 32.477 33.1413C32.6483 32.9545 32.8109 32.7981 32.9735 32.6765C33.3558 32.3724 33.8127 32.1335 34.3488 31.9641C34.8805 31.7904 35.4649 31.7035 36.0977 31.7035Z" fill="#E42613"/>
<path d="M48.3138 34.1533C47.993 33.9491 47.6898 33.8275 47.4086 33.7797C47.1318 33.732 46.9077 33.7102 46.7363 33.7102C46.4727 33.7102 46.2222 33.745 45.9849 33.8101C45.7476 33.8753 45.5235 33.9969 45.3126 34.1663C45.0797 34.3705 44.8952 34.6181 44.7678 34.9048C44.6359 35.1958 44.57 35.5129 44.57 35.856C44.57 36.273 44.6491 36.6075 44.8073 36.8594C44.9655 37.1114 45.1105 37.3025 45.2555 37.4241C45.5279 37.6674 45.8135 37.8194 46.1036 37.8889C46.3936 37.9541 46.6572 37.9888 46.8901 37.9888C47.0615 37.9888 47.2856 37.9671 47.5624 37.928C47.8392 37.8889 48.1556 37.7803 48.5071 37.6109L48.5686 39.6481C48.3753 39.7089 48.1029 39.7828 47.7425 39.8696C47.3866 39.9565 46.9384 40 46.4067 40C45.5279 40 44.759 39.8479 44.0911 39.5439C43.4232 39.2398 42.9003 38.8271 42.5268 38.3102C42.2631 37.9541 42.0698 37.5544 41.9468 37.1027C41.8193 36.6553 41.7578 36.2383 41.7578 35.856C41.7578 35.5824 41.7886 35.2914 41.8413 34.9873C41.8984 34.6832 41.9907 34.3835 42.1181 34.0881C42.2499 33.7928 42.4301 33.5061 42.6542 33.2281C42.8827 32.9501 43.1595 32.6982 43.4935 32.4766C43.968 32.1595 44.4514 31.951 44.9523 31.8511C45.4488 31.7469 45.9454 31.6991 46.4375 31.6991C46.7583 31.6991 47.0966 31.7295 47.4437 31.7903C47.7909 31.8511 48.1468 31.9684 48.5071 32.1378L48.3138 34.1533Z" fill="#E42613"/>
<path d="M56.0286 34.1533C55.7078 33.9491 55.4047 33.8275 55.1278 33.7797C54.851 33.732 54.6225 33.7102 54.4511 33.7102C54.1875 33.7102 53.937 33.745 53.6998 33.8101C53.4625 33.8753 53.2384 33.9969 53.0275 34.1663C52.7946 34.3705 52.61 34.6181 52.4826 34.9048C52.3508 35.1958 52.2849 35.5129 52.2849 35.856C52.2849 36.273 52.364 36.6075 52.5221 36.8594C52.6803 37.1114 52.8253 37.3025 52.9703 37.4241C53.2428 37.6674 53.5284 37.8194 53.8184 37.8889C54.1084 37.9541 54.372 37.9888 54.6049 37.9888C54.7763 37.9888 55.0004 37.9671 55.2772 37.928C55.5541 37.8889 55.8704 37.7803 56.2219 37.6109L56.2835 39.6481C56.0901 39.7089 55.8177 39.7828 55.4574 39.8696C55.1015 39.9565 54.6533 40 54.1216 40C53.2428 40 52.4738 39.8479 51.8059 39.5439C51.138 39.2398 50.6151 38.8271 50.2416 38.3102C49.978 37.9541 49.7846 37.5544 49.6616 37.1027C49.5342 36.6553 49.4727 36.2383 49.4727 35.856C49.4727 35.5824 49.5034 35.2914 49.5561 34.9873C49.6133 34.6832 49.7055 34.3835 49.833 34.0881C49.9648 33.7928 50.1449 33.5061 50.369 33.2281C50.5975 32.9501 50.8744 32.6982 51.2083 32.4766C51.6829 32.1595 52.1662 31.951 52.6671 31.8511C53.1637 31.7469 53.6602 31.6991 54.1523 31.6991C54.4731 31.6991 54.8115 31.7295 55.1586 31.7903C55.5057 31.8511 55.8616 31.9684 56.2219 32.1378L56.0286 34.1533Z" fill="#E42613"/>
<path d="M60.2858 31.886V34.275L60.2111 36.7727H60.2551L63.3222 31.886H66.3848V39.822H63.6693V37.459L63.744 34.9309H63.7L60.633 39.822H57.5703V31.886H60.2858Z" fill="#E42613"/>
<path d="M70.946 31.886V34.275L70.8713 36.7727H70.9152L73.9823 31.886H77.0494V39.822H74.3294V37.459L74.4041 34.9309H74.3602L71.2931 39.822H68.2305V31.886H70.946Z" fill="#E42613"/>
<path d="M12.8512 27.6738H0.433594V39.9492H12.8512V27.6738Z" fill="#E42613"/>
<path d="M6.64384 0L0 11.8627H13.2921L6.64384 0Z" fill="#E42613"/>
<path d="M7.43286 13.6875V18.9217L9.51566 16.8584L10.333 17.6664L7.2615 20.7026L6.27722 20.2987V13.6484C3.02122 13.8396 0.4375 16.5023 0.4375 19.7687C0.4375 23.1568 3.21895 25.9064 6.64633 25.9064C10.0737 25.9064 12.8552 23.1568 12.8552 19.7687C12.8552 16.6456 10.4867 14.0698 7.43286 13.6875Z" fill="#E42613"/>
<path d="M6.64453 13.6306C6.89499 13.6306 7.13667 13.6482 7.37834 13.679C7.13667 13.6482 6.8906 13.6306 6.64453 13.6306Z" fill="#E42613"/>
</svg>
