<svg width="80" height="40" viewBox="0 0 80 40" fill="none" xmlns="http://www.w3.org/2000/svg">
<rect width="80" height="40" fill="#E21A1A"/>
<g clip-path="url(#clip0_1121_4766)">
<path d="M52.116 9.33776V10.2829H60.2246C60.7652 10.2829 61.5761 10.2829 62.1084 10.8235C62.6408 11.3641 62.649 12.175 62.649 12.7073V20.8159C62.649 21.3565 62.649 22.1674 62.1084 22.6997C61.5679 23.2403 60.757 23.2403 60.2246 23.2403H56.3096C55.6347 23.2403 54.755 23.2403 54.4258 22.4966C54.0883 21.7529 54.5607 21.078 54.9663 20.5309L60.241 13.5034H52.1324L48.889 17.828C48.3451 18.5521 47.875 19.1795 47.875 19.9903C47.875 20.8012 48.3124 21.3843 48.889 22.1526L49.6998 23.2338C50.5107 24.3149 51.3216 25.396 52.4027 25.9366C53.4839 26.4772 54.7616 26.4772 56.5307 26.4772H60.0362C62.0675 26.4772 65.098 26.4772 67.1292 24.4459C69.1605 22.4147 69.1605 19.4497 69.1605 18.3686V15.1252C69.1605 14.044 69.1605 11.0791 67.1292 9.04782C65.098 7.01658 62.0675 7.01658 60.0362 7.01658L54.4339 7.01478C53.8934 7.01461 53.2185 7.01478 52.6812 7.55535C52.1406 8.09592 52.1406 8.77082 52.1406 9.30811" fill="white"/>
<path d="M42.4499 13.5312H50.4766L40.8118 26.5378H32.7852L42.4499 13.5312Z" fill="white"/>
<path d="M10.8359 15.8246C10.8359 15.284 10.8359 14.6091 11.3765 14.0718C11.9171 13.5345 12.592 13.5312 13.1293 13.5312H26.7091C28.4619 13.5312 29.756 13.5313 30.8371 14.0718C31.9183 14.6124 32.7209 15.6935 33.54 16.7747L34.3508 17.8558C34.9258 18.6225 35.3648 19.2073 35.3648 20.0181C35.3648 20.829 34.8947 21.4564 34.3508 22.1804L31.1074 26.505H22.9988L28.2735 19.4775C28.6781 18.937 29.1515 18.2621 28.8141 17.5118C28.4766 16.7681 27.5986 16.7681 26.9303 16.7681H20.5744V32.9853H14.0876V16.7681H10.8441V15.8213" fill="white"/>
</g>
<defs>
<clipPath id="clip0_1121_4766">
<rect width="58.3244" height="25.9705" fill="white" transform="translate(10.8359 7.01477)"/>
</clipPath>
</defs>
</svg>
