<svg width="24" height="24" viewBox="0 0 24 24" fill="none" xmlns="http://www.w3.org/2000/svg">
<mask id="mask0_417_41468" style="mask-type:alpha" maskUnits="userSpaceOnUse" x="16" y="4" width="7" height="8">
<path d="M16.2673 6.44975L18.0986 4.07349C20.4812 5.90966 22.0029 8.7953 22.0002 12H19.0002C19.0023 9.75877 17.9409 7.73945 16.2673 6.44975Z" fill="url(#paint0_linear_417_41468)"/>
</mask>
<g mask="url(#mask0_417_41468)">
<rect x="1" y="1" width="22" height="22" fill="#E30611"/>
</g>
<mask id="mask1_417_41468" style="mask-type:alpha" maskUnits="userSpaceOnUse" x="12" y="12" width="11" height="10">
<path d="M12 18.9998C15.7006 19.0029 18.7946 16.104 18.9905 12.366C18.9969 12.2434 19.0001 12.1214 19.0002 12H22.0003C22.0002 12.1734 21.9955 12.3478 21.9864 12.523C21.7065 17.863 17.2866 22.0043 12 21.9999V18.9998Z" fill="url(#paint1_linear_417_41468)"/>
</mask>
<g mask="url(#mask1_417_41468)">
<rect x="1" y="1" width="22" height="22" fill="#E30611"/>
</g>
<mask id="mask2_417_41468" style="mask-type:alpha" maskUnits="userSpaceOnUse" x="1" y="12" width="11" height="10">
<path d="M11.6337 18.99C11.7563 18.9964 11.8785 18.9997 11.9999 18.9998V21.9999C11.8264 21.9997 11.6519 21.9951 11.4766 21.9859C6.13681 21.7061 1.9955 17.2864 1.99976 12H4.99983C4.99691 15.7004 7.89581 18.7941 11.6337 18.99Z" fill="url(#paint2_linear_417_41468)"/>
</mask>
<g mask="url(#mask2_417_41468)">
<rect x="1" y="1" width="22" height="22" fill="#E30611"/>
</g>
<mask id="mask3_417_41468" style="mask-type:alpha" maskUnits="userSpaceOnUse" x="1" y="1" width="13" height="11">
<path d="M12.3664 5.00923C8.50566 4.8069 5.21192 7.77259 5.00959 11.6333C5.00316 11.7561 4.99993 11.8784 4.99983 12H1.99976C1.9999 11.8263 2.00451 11.6517 2.01371 11.4763C2.30275 5.961 7.00808 1.7243 12.5234 2.01334C13.3507 2.0567 13.9862 2.7625 13.9428 3.58979C13.8994 4.41708 13.1936 5.05259 12.3664 5.00923Z" fill="url(#paint3_linear_417_41468)"/>
</mask>
<g mask="url(#mask3_417_41468)">
<rect x="1" y="1" width="22" height="22" fill="#E21A1A"/>
</g>
<defs>
<linearGradient id="paint0_linear_417_41468" x1="18.9999" y1="12" x2="15.9999" y2="4" gradientUnits="userSpaceOnUse">
<stop stop-opacity="0.08"/>
<stop offset="1" stop-opacity="0"/>
</linearGradient>
<linearGradient id="paint1_linear_417_41468" x1="12" y1="19" x2="19" y2="12" gradientUnits="userSpaceOnUse">
<stop stop-opacity="0.35"/>
<stop offset="1" stop-opacity="0.08"/>
</linearGradient>
<linearGradient id="paint2_linear_417_41468" x1="4.99994" y1="12" x2="11.9999" y2="19" gradientUnits="userSpaceOnUse">
<stop stop-opacity="0.65"/>
<stop offset="1" stop-opacity="0.35"/>
</linearGradient>
<linearGradient id="paint3_linear_417_41468" x1="13.9999" y1="5.00003" x2="4.99994" y2="12" gradientUnits="userSpaceOnUse">
<stop/>
<stop offset="1" stop-opacity="0.65"/>
</linearGradient>
</defs>
</svg>
