<svg width="20" height="20" viewBox="0 0 20 20" fill="none" xmlns="http://www.w3.org/2000/svg">
<path fill-rule="evenodd" clip-rule="evenodd" d="M4 0C1.79086 0 0 1.79086 0 4V16C0 18.2091 1.79086 20 4 20H16C18.2091 20 20 18.2091 20 16V4C20 1.79086 18.2091 0 16 0H4ZM17.4692 5.22636C17.7518 4.83958 17.634 4.29284 17.2171 4.0569C16.8631 3.85657 16.4152 3.95339 16.1755 4.28203L8.25093 15.1501C8.19997 15.22 8.10077 15.2327 8.03375 15.178L4.18767 12.0384C3.74252 11.675 3.07488 11.8216 2.82293 12.338C2.6355 12.7223 2.74723 13.1854 3.08922 13.4419L8.27873 17.334C8.40049 17.4254 8.57339 17.3996 8.66319 17.2767L17.4692 5.22636Z" fill="#00985F"/>
</svg>
