<svg width="24" height="24" viewBox="0 0 24 24" fill="none" xmlns="http://www.w3.org/2000/svg">
<path d="M21.9596 4.36237C21.9911 4.4955 22.0043 4.63248 21.9988 4.76933C21.9979 4.84186 21.9923 4.91115 21.9857 4.99351L21.9857 4.99356C21.9815 5.04562 21.9768 5.10289 21.9727 5.16952L21.9596 4.36237ZM21.9596 4.36237C21.9436 4.28699 21.9082 4.21732 21.8571 4.16048M21.9596 4.36237L21.8571 4.16048M21.8571 4.16048C21.806 4.10363 21.7411 4.06166 21.6689 4.03885L21.8571 4.16048ZM9.87368 19.7169L10.2807 15.3933L10.4218 15.2698C10.5765 15.1343 10.7974 14.9406 11.0625 14.7077C11.5927 14.2419 12.2997 13.6188 13.007 12.9903C13.7137 12.3622 14.4225 11.727 14.9554 11.2375C15.2212 10.9932 15.4466 10.7822 15.6069 10.6254C15.6862 10.5478 15.7551 10.4781 15.8063 10.4218C15.8309 10.3948 15.8593 10.3623 15.8843 10.3288C15.8963 10.3129 15.9155 10.286 15.934 10.2524C15.9342 10.252 15.9345 10.2514 15.9349 10.2507C15.9448 10.2332 16 10.1346 16 10C16 9.88074 15.9571 9.75216 15.8594 9.65042C15.773 9.56041 15.6763 9.5254 15.622 9.51114C15.5232 9.48518 15.4399 9.49575 15.4177 9.49857L15.4171 9.49864C15.3554 9.50646 15.2991 9.52382 15.2684 9.53368C15.1957 9.55708 15.1041 9.59327 15.0054 9.63471C14.8031 9.71968 14.5195 9.8487 14.1836 10.0067C13.5097 10.3238 12.6032 10.7682 11.6666 11.2377C9.91235 12.117 8.00528 13.1077 7.3351 13.5138C7.33404 13.5137 7.33298 13.5137 7.3319 13.5137C7.30722 13.5133 7.2824 13.5121 7.26147 13.5104C7.26129 13.5104 7.26112 13.5104 7.26094 13.5104L2.59166 11.851C2.58778 11.849 2.58279 11.8462 2.57704 11.8427C2.55476 11.8293 2.5318 11.8121 2.5149 11.7943C2.50614 11.7851 2.50192 11.7788 2.5001 11.7757C2.50035 11.7725 2.50109 11.7675 2.50298 11.7602C2.51989 11.7427 2.55953 11.7071 2.64728 11.645L2.64823 11.6443L2.64824 11.6443C2.64847 11.6441 2.65502 11.6396 2.67081 11.6303C2.6862 11.6213 2.70677 11.6098 2.73326 11.5958C2.78646 11.5677 2.85649 11.533 2.94409 11.4918C3.11915 11.4095 3.35212 11.3068 3.63695 11.1859C4.20598 10.9445 4.96791 10.6368 5.85826 10.2859C7.63818 9.58447 9.91955 8.71516 12.1718 7.86729C14.4236 7.0196 16.6443 6.19407 18.3022 5.58041C19.1312 5.27359 19.8193 5.01977 20.3002 4.84267L20.8578 4.63752L21.0044 4.58366L21.0419 4.56988L21.0469 4.56802L21.0541 4.56573C21.0635 4.56276 21.0787 4.55815 21.0983 4.55269C21.1381 4.5416 21.193 4.52794 21.2534 4.51722C21.3151 4.50628 21.3737 4.50002 21.4231 4.5C21.4506 4.49999 21.4687 4.50196 21.4788 4.50353C21.4957 4.58409 21.5025 4.66661 21.4992 4.7491L21.4989 4.75628L21.4988 4.76347C21.4982 4.81583 21.4942 4.86778 21.4873 4.95328L21.4872 4.95464C21.483 5.00628 21.4781 5.0674 21.4737 5.13866L21.4736 5.13921C21.4498 5.53214 21.241 6.63733 20.9229 8.13134C20.6094 9.60397 20.201 11.4051 19.7954 13.1537C19.3898 14.9019 18.9875 16.5954 18.6866 17.852C18.5362 18.4803 18.4111 18.9992 18.3236 19.3611L18.2222 19.78L18.1955 19.8899L18.1887 19.9179L18.1878 19.9213L18.1853 19.9298C18.182 19.9406 18.1759 19.9589 18.1666 19.9822C18.1477 20.0302 18.1185 20.0917 18.0782 20.1507C17.998 20.2681 17.9068 20.3346 17.7785 20.3399C17.5956 20.3459 17.2854 20.3485 17.0702 20.1288L17.057 20.1154L17.0429 20.103C16.6578 19.7649 16.0588 19.3341 15.3826 18.8638C15.1133 18.6764 14.8314 18.4826 14.5416 18.2833C14.0898 17.9726 13.6186 17.6486 13.1453 17.315L12.8271 17.0907L12.5316 17.3443C12.4315 17.4302 12.3082 17.5313 12.166 17.6479C11.679 18.0473 10.9699 18.6288 10.2063 19.4085C10.0716 19.546 9.96155 19.6455 9.87368 19.7169ZM2.50017 11.7798C2.50009 11.7799 2.49997 11.7791 2.50001 11.7776C2.50026 11.779 2.50024 11.7798 2.50017 11.7798ZM15.5836 10.4829C15.5837 10.4829 15.5827 10.4832 15.5806 10.4838C15.5826 10.4832 15.5836 10.4829 15.5836 10.4829Z" stroke="black"/>
</svg>
