<svg width="24" height="24" viewBox="0 0 24 24" fill="none" xmlns="http://www.w3.org/2000/svg">
<path d="M10.5574 14.6446V6.5H12.7805V10.9344V11.4911L13.334 11.4315C14.4807 11.3082 15.5948 10.6067 16.4943 9.65939C17.3165 8.7935 17.9981 7.68299 18.3958 6.5H20.6298C19.9598 9.07011 18.018 10.9773 16.6153 11.7882L15.7864 12.2675L16.6534 12.6738C18.0598 13.3331 20.2822 15.0054 21.3209 17.9797H18.8077C17.9269 15.6195 15.9486 13.783 13.33 13.5224L12.7805 13.4678V14.02V17.9793C9.54122 17.9539 7.04371 16.8326 5.32378 14.8366C3.65262 12.8973 2.67045 10.0794 2.51616 6.5H4.93867C5.1854 12.0195 7.70824 14.5727 9.93613 15.1297L10.5574 15.285V14.6446Z" stroke="black"/>
</svg>
